<mxfile host="app.diagrams.net" modified="2023-06-26T20:37:08.049Z" agent="Mozilla/5.0 (Windows NT 10.0; Win64; x64) AppleWebKit/537.36 (KHTML, like Gecko) Chrome/114.0.0.0 Safari/537.36" etag="VvsXyoPSrNdj0UqnLIrG" version="21.5.0" type="github">
  <diagram name="Page-1" id="CWEYISrgADJtXfGi1DAo">
    <mxGraphModel dx="2273" dy="1130" grid="1" gridSize="10" guides="1" tooltips="1" connect="1" arrows="1" fold="1" page="1" pageScale="1" pageWidth="827" pageHeight="1169" math="0" shadow="0">
      <root>
        <mxCell id="0" />
        <mxCell id="1" parent="0" />
        <mxCell id="c4bTDbG_xZmUtGrgAbJ7-18" value="Start" style="rounded=1;absoluteArcSize=1;arcSize=14;whiteSpace=wrap;strokeWidth=2;" parent="1" vertex="1">
          <mxGeometry x="343" y="70" width="51" height="34" as="geometry" />
        </mxCell>
        <mxCell id="c4bTDbG_xZmUtGrgAbJ7-19" value="Boil water" style="rounded=1;absoluteArcSize=1;arcSize=14;whiteSpace=wrap;strokeWidth=2;" parent="1" vertex="1">
          <mxGeometry x="324" y="154" width="89" height="34" as="geometry" />
        </mxCell>
        <mxCell id="c4bTDbG_xZmUtGrgAbJ7-20" value="Add tea leaves" style="rounded=1;absoluteArcSize=1;arcSize=14;whiteSpace=wrap;strokeWidth=2;" parent="1" vertex="1">
          <mxGeometry x="307" y="238" width="122" height="34" as="geometry" />
        </mxCell>
        <mxCell id="c4bTDbG_xZmUtGrgAbJ7-21" value="Steep for 3 minutes" style="rounded=1;absoluteArcSize=1;arcSize=14;whiteSpace=wrap;strokeWidth=2;" parent="1" vertex="1">
          <mxGeometry x="290" y="322" width="156" height="34" as="geometry" />
        </mxCell>
        <mxCell id="c4bTDbG_xZmUtGrgAbJ7-22" value="Add milk" style="rounded=1;absoluteArcSize=1;arcSize=14;whiteSpace=wrap;strokeWidth=2;" parent="1" vertex="1">
          <mxGeometry x="328" y="406" width="80" height="34" as="geometry" />
        </mxCell>
        <mxCell id="c4bTDbG_xZmUtGrgAbJ7-23" value="Optional: Add sugar" style="rounded=1;absoluteArcSize=1;arcSize=14;whiteSpace=wrap;strokeWidth=2;" parent="1" vertex="1">
          <mxGeometry x="290" y="490" width="157" height="34" as="geometry" />
        </mxCell>
        <mxCell id="c4bTDbG_xZmUtGrgAbJ7-24" value="Stir" style="rounded=1;absoluteArcSize=1;arcSize=14;whiteSpace=wrap;strokeWidth=2;" parent="1" vertex="1">
          <mxGeometry x="348" y="574" width="41" height="34" as="geometry" />
        </mxCell>
        <mxCell id="c4bTDbG_xZmUtGrgAbJ7-25" value="Pour into a cup" style="rounded=1;absoluteArcSize=1;arcSize=14;whiteSpace=wrap;strokeWidth=2;" parent="1" vertex="1">
          <mxGeometry x="307" y="658" width="123" height="34" as="geometry" />
        </mxCell>
        <mxCell id="c4bTDbG_xZmUtGrgAbJ7-26" value="Enjoy!" style="rounded=1;absoluteArcSize=1;arcSize=14;whiteSpace=wrap;strokeWidth=2;" parent="1" vertex="1">
          <mxGeometry x="338" y="742" width="61" height="34" as="geometry" />
        </mxCell>
        <mxCell id="c4bTDbG_xZmUtGrgAbJ7-27" value="" style="curved=1;startArrow=none;endArrow=block;exitX=0.4961703431372549;exitY=1;entryX=0.4978054775280899;entryY=0;rounded=0;" parent="1" source="c4bTDbG_xZmUtGrgAbJ7-18" target="c4bTDbG_xZmUtGrgAbJ7-19" edge="1">
          <mxGeometry relative="1" as="geometry">
            <Array as="points" />
          </mxGeometry>
        </mxCell>
        <mxCell id="c4bTDbG_xZmUtGrgAbJ7-28" value="" style="curved=1;startArrow=none;endArrow=block;exitX=0.4978054775280899;exitY=1;entryX=0.5024974385245902;entryY=0;rounded=0;" parent="1" source="c4bTDbG_xZmUtGrgAbJ7-19" target="c4bTDbG_xZmUtGrgAbJ7-20" edge="1">
          <mxGeometry relative="1" as="geometry">
            <Array as="points" />
          </mxGeometry>
        </mxCell>
        <mxCell id="c4bTDbG_xZmUtGrgAbJ7-29" value="" style="curved=1;startArrow=none;endArrow=block;exitX=0.5024974385245902;exitY=1;entryX=0.501953125;entryY=0;rounded=0;" parent="1" source="c4bTDbG_xZmUtGrgAbJ7-20" target="c4bTDbG_xZmUtGrgAbJ7-21" edge="1">
          <mxGeometry relative="1" as="geometry">
            <Array as="points" />
          </mxGeometry>
        </mxCell>
        <mxCell id="c4bTDbG_xZmUtGrgAbJ7-30" value="" style="curved=1;startArrow=none;endArrow=block;exitX=0.501953125;exitY=1;entryX=0.50380859375;entryY=0;rounded=0;" parent="1" source="c4bTDbG_xZmUtGrgAbJ7-21" target="c4bTDbG_xZmUtGrgAbJ7-22" edge="1">
          <mxGeometry relative="1" as="geometry">
            <Array as="points" />
          </mxGeometry>
        </mxCell>
        <mxCell id="c4bTDbG_xZmUtGrgAbJ7-31" value="" style="curved=1;startArrow=none;endArrow=block;exitX=0.50380859375;exitY=1;entryX=0.4987559713375796;entryY=0;rounded=0;" parent="1" source="c4bTDbG_xZmUtGrgAbJ7-22" target="c4bTDbG_xZmUtGrgAbJ7-23" edge="1">
          <mxGeometry relative="1" as="geometry">
            <Array as="points" />
          </mxGeometry>
        </mxCell>
        <mxCell id="c4bTDbG_xZmUtGrgAbJ7-32" value="" style="curved=1;startArrow=none;endArrow=block;exitX=0.4987559713375796;exitY=1;entryX=0.4952362804878049;entryY=0;rounded=0;" parent="1" source="c4bTDbG_xZmUtGrgAbJ7-23" target="c4bTDbG_xZmUtGrgAbJ7-24" edge="1">
          <mxGeometry relative="1" as="geometry">
            <Array as="points" />
          </mxGeometry>
        </mxCell>
        <mxCell id="c4bTDbG_xZmUtGrgAbJ7-33" value="" style="curved=1;startArrow=none;endArrow=block;exitX=0.4952362804878049;exitY=1;entryX=0.49841209349593496;entryY=0;rounded=0;" parent="1" source="c4bTDbG_xZmUtGrgAbJ7-24" target="c4bTDbG_xZmUtGrgAbJ7-25" edge="1">
          <mxGeometry relative="1" as="geometry">
            <Array as="points" />
          </mxGeometry>
        </mxCell>
        <mxCell id="c4bTDbG_xZmUtGrgAbJ7-34" value="" style="curved=1;startArrow=none;endArrow=block;exitX=0.49841209349593496;exitY=1;entryX=0.4967981557377049;entryY=0;rounded=0;" parent="1" source="c4bTDbG_xZmUtGrgAbJ7-25" target="c4bTDbG_xZmUtGrgAbJ7-26" edge="1">
          <mxGeometry relative="1" as="geometry">
            <Array as="points" />
          </mxGeometry>
        </mxCell>
        <mxCell id="c4bTDbG_xZmUtGrgAbJ7-35" value="Start" style="rounded=1;absoluteArcSize=1;arcSize=14;whiteSpace=wrap;strokeWidth=2;" parent="1" vertex="1">
          <mxGeometry x="343" y="70" width="51" height="34" as="geometry" />
        </mxCell>
        <mxCell id="c4bTDbG_xZmUtGrgAbJ7-36" value="Boil water" style="rounded=1;absoluteArcSize=1;arcSize=14;whiteSpace=wrap;strokeWidth=2;" parent="1" vertex="1">
          <mxGeometry x="324" y="154" width="89" height="34" as="geometry" />
        </mxCell>
        <mxCell id="c4bTDbG_xZmUtGrgAbJ7-37" value="Add tea leaves" style="rounded=1;absoluteArcSize=1;arcSize=14;whiteSpace=wrap;strokeWidth=2;" parent="1" vertex="1">
          <mxGeometry x="307" y="238" width="122" height="34" as="geometry" />
        </mxCell>
        <mxCell id="c4bTDbG_xZmUtGrgAbJ7-38" value="Steep for 3 minutes" style="rounded=1;absoluteArcSize=1;arcSize=14;whiteSpace=wrap;strokeWidth=2;" parent="1" vertex="1">
          <mxGeometry x="290" y="322" width="156" height="34" as="geometry" />
        </mxCell>
        <mxCell id="c4bTDbG_xZmUtGrgAbJ7-39" value="Add milk" style="rounded=1;absoluteArcSize=1;arcSize=14;whiteSpace=wrap;strokeWidth=2;" parent="1" vertex="1">
          <mxGeometry x="328" y="406" width="80" height="34" as="geometry" />
        </mxCell>
        <mxCell id="c4bTDbG_xZmUtGrgAbJ7-40" value="Optional: Add sugar" style="rounded=1;absoluteArcSize=1;arcSize=14;whiteSpace=wrap;strokeWidth=2;" parent="1" vertex="1">
          <mxGeometry x="290" y="490" width="157" height="34" as="geometry" />
        </mxCell>
        <mxCell id="c4bTDbG_xZmUtGrgAbJ7-41" value="Stir" style="rounded=1;absoluteArcSize=1;arcSize=14;whiteSpace=wrap;strokeWidth=2;" parent="1" vertex="1">
          <mxGeometry x="348" y="574" width="41" height="34" as="geometry" />
        </mxCell>
        <mxCell id="c4bTDbG_xZmUtGrgAbJ7-42" value="Pour into a cup" style="rounded=1;absoluteArcSize=1;arcSize=14;whiteSpace=wrap;strokeWidth=2;" parent="1" vertex="1">
          <mxGeometry x="307" y="658" width="123" height="34" as="geometry" />
        </mxCell>
        <mxCell id="c4bTDbG_xZmUtGrgAbJ7-43" value="Enjoy!" style="rounded=1;absoluteArcSize=1;arcSize=14;whiteSpace=wrap;strokeWidth=2;" parent="1" vertex="1">
          <mxGeometry x="338" y="742" width="61" height="34" as="geometry" />
        </mxCell>
        <mxCell id="c4bTDbG_xZmUtGrgAbJ7-44" value="" style="curved=1;startArrow=none;endArrow=block;exitX=0.4961703431372549;exitY=1;entryX=0.4978054775280899;entryY=0;rounded=0;" parent="1" source="c4bTDbG_xZmUtGrgAbJ7-35" target="c4bTDbG_xZmUtGrgAbJ7-36" edge="1">
          <mxGeometry relative="1" as="geometry">
            <Array as="points" />
          </mxGeometry>
        </mxCell>
        <mxCell id="c4bTDbG_xZmUtGrgAbJ7-45" value="" style="curved=1;startArrow=none;endArrow=block;exitX=0.4978054775280899;exitY=1;entryX=0.5024974385245902;entryY=0;rounded=0;" parent="1" source="c4bTDbG_xZmUtGrgAbJ7-36" target="c4bTDbG_xZmUtGrgAbJ7-37" edge="1">
          <mxGeometry relative="1" as="geometry">
            <Array as="points" />
          </mxGeometry>
        </mxCell>
        <mxCell id="c4bTDbG_xZmUtGrgAbJ7-46" value="" style="curved=1;startArrow=none;endArrow=block;exitX=0.5024974385245902;exitY=1;entryX=0.501953125;entryY=0;rounded=0;" parent="1" source="c4bTDbG_xZmUtGrgAbJ7-37" target="c4bTDbG_xZmUtGrgAbJ7-38" edge="1">
          <mxGeometry relative="1" as="geometry">
            <Array as="points" />
          </mxGeometry>
        </mxCell>
        <mxCell id="c4bTDbG_xZmUtGrgAbJ7-47" value="" style="curved=1;startArrow=none;endArrow=block;exitX=0.501953125;exitY=1;entryX=0.50380859375;entryY=0;rounded=0;" parent="1" source="c4bTDbG_xZmUtGrgAbJ7-38" target="c4bTDbG_xZmUtGrgAbJ7-39" edge="1">
          <mxGeometry relative="1" as="geometry">
            <Array as="points" />
          </mxGeometry>
        </mxCell>
        <mxCell id="c4bTDbG_xZmUtGrgAbJ7-48" value="" style="curved=1;startArrow=none;endArrow=block;exitX=0.50380859375;exitY=1;entryX=0.4987559713375796;entryY=0;rounded=0;" parent="1" source="c4bTDbG_xZmUtGrgAbJ7-39" target="c4bTDbG_xZmUtGrgAbJ7-40" edge="1">
          <mxGeometry relative="1" as="geometry">
            <Array as="points" />
          </mxGeometry>
        </mxCell>
        <mxCell id="c4bTDbG_xZmUtGrgAbJ7-49" value="" style="curved=1;startArrow=none;endArrow=block;exitX=0.4987559713375796;exitY=1;entryX=0.4952362804878049;entryY=0;rounded=0;" parent="1" source="c4bTDbG_xZmUtGrgAbJ7-40" target="c4bTDbG_xZmUtGrgAbJ7-41" edge="1">
          <mxGeometry relative="1" as="geometry">
            <Array as="points" />
          </mxGeometry>
        </mxCell>
        <mxCell id="c4bTDbG_xZmUtGrgAbJ7-50" value="" style="curved=1;startArrow=none;endArrow=block;exitX=0.4952362804878049;exitY=1;entryX=0.49841209349593496;entryY=0;rounded=0;" parent="1" source="c4bTDbG_xZmUtGrgAbJ7-41" target="c4bTDbG_xZmUtGrgAbJ7-42" edge="1">
          <mxGeometry relative="1" as="geometry">
            <Array as="points" />
          </mxGeometry>
        </mxCell>
        <mxCell id="c4bTDbG_xZmUtGrgAbJ7-51" value="" style="curved=1;startArrow=none;endArrow=block;exitX=0.49841209349593496;exitY=1;entryX=0.4967981557377049;entryY=0;rounded=0;" parent="1" source="c4bTDbG_xZmUtGrgAbJ7-42" target="c4bTDbG_xZmUtGrgAbJ7-43" edge="1">
          <mxGeometry relative="1" as="geometry">
            <Array as="points" />
          </mxGeometry>
        </mxCell>
      </root>
    </mxGraphModel>
  </diagram>
</mxfile>
